<svg width="100" height="100" viewBox="0 0 100 100" fill="none" xmlns="http://www.w3.org/2000/svg">
<path d="M23.8095 0H71.4286C74.0586 0 76.1905 2.23855 76.1905 5V20H19.0476V5C19.0476 2.23855 21.1796 0 23.8095 0ZM95.2381 35C95.2381 32.2385 93.1062 30 90.4762 30H4.7619C2.13195 30 0 32.2385 0 35V85C0 87.7615 2.13195 90 4.7619 90H14.2857V65H48.5419C49.7005 60.5435 51.9495 56.562 55.29 53.0545C60.4038 47.685 66.5771 45 73.8095 45C81.0419 45 87.2152 47.685 92.329 53.0545C93.4138 54.1935 94.3833 55.3825 95.2381 56.6215V35ZM28.5714 40V50H14.2857V40H28.5714ZM90.4762 72.5C90.4762 62.835 83.0143 55 73.8095 55C64.6048 55 57.1429 62.835 57.1429 72.5L57.159 73.0125C51.6543 74.6395 47.619 79.95 47.619 86.25C47.619 93.5625 53.0557 99.542 59.9167 99.975L60.7143 100H86.9048L87.7024 99.975C94.5633 99.542 100 93.5625 100 86.25C100 79.9515 95.9671 74.6425 90.469 73.0165L90.4762 72.5ZM23.8095 75H40.7714C38.9871 78.4295 38.0952 82.1795 38.0952 86.25C38.0952 91.4115 39.4786 95.995 42.2452 100H23.8095V75Z" fill="white"/>
</svg>
